<svg xmlns="http://www.w3.org/2000/svg" xmlns:xlink="http://www.w3.org/1999/xlink" width="783" zoomAndPan="magnify" viewBox="0 0 587.25 421.500001" height="562" preserveAspectRatio="xMidYMid meet" version="1.0"><defs><clipPath id="id1"><path d="M 344 246 L 451 246 L 451 420.980469 L 344 420.980469 Z M 344 246 " clip-rule="nonzero"/></clipPath><clipPath id="id2"><path d="M 69.335938 175 L 169 175 L 169 420.980469 L 69.335938 420.980469 Z M 69.335938 175 " clip-rule="nonzero"/></clipPath><clipPath id="id3"><path d="M 450 183 L 517.261719 183 L 517.261719 420.980469 L 450 420.980469 Z M 450 183 " clip-rule="nonzero"/></clipPath><clipPath id="id4"><path d="M 450 183 L 471 183 L 471 420.980469 L 450 420.980469 Z M 450 183 " clip-rule="nonzero"/></clipPath><clipPath id="id5"><path d="M 116 113 L 236 113 L 236 420.980469 L 116 420.980469 Z M 116 113 " clip-rule="nonzero"/></clipPath><clipPath id="id6"><path d="M 371 0.0195312 L 387 0.0195312 L 387 38 L 371 38 Z M 371 0.0195312 " clip-rule="nonzero"/></clipPath><clipPath id="id7"><path d="M 492 183 L 517.261719 183 L 517.261719 189 L 492 189 Z M 492 183 " clip-rule="nonzero"/></clipPath><clipPath id="id8"><path d="M 492 196 L 517.261719 196 L 517.261719 202 L 492 202 Z M 492 196 " clip-rule="nonzero"/></clipPath><clipPath id="id9"><path d="M 492 210 L 517.261719 210 L 517.261719 216 L 492 216 Z M 492 210 " clip-rule="nonzero"/></clipPath><clipPath id="id10"><path d="M 492 223 L 517.261719 223 L 517.261719 229 L 492 229 Z M 492 223 " clip-rule="nonzero"/></clipPath><clipPath id="id11"><path d="M 492 236 L 517.261719 236 L 517.261719 242 L 492 242 Z M 492 236 " clip-rule="nonzero"/></clipPath><clipPath id="id12"><path d="M 258 150 L 328 150 L 328 420.980469 L 258 420.980469 Z M 258 150 " clip-rule="nonzero"/></clipPath></defs><path fill="rgb(31.369019%, 40.779114%, 70.588684%)" d="M 314.417969 117.71875 L 271.042969 117.71875 L 271.042969 150.976562 L 314.417969 150.976562 L 314.417969 117.71875 " fill-opacity="1" fill-rule="nonzero"/><g clip-path="url(#id1)"><path fill="rgb(31.369019%, 40.779114%, 70.588684%)" d="M 450.667969 246.714844 L 344.914062 246.714844 L 344.914062 420.527344 L 450.667969 420.527344 L 450.667969 246.714844 " fill-opacity="1" fill-rule="nonzero"/></g><path fill="rgb(31.369019%, 40.779114%, 70.588684%)" d="M 414.152344 82.804688 L 344.914062 82.804688 L 344.914062 246.871094 L 414.152344 246.871094 L 414.152344 82.804688 " fill-opacity="1" fill-rule="nonzero"/><g clip-path="url(#id2)"><path fill="rgb(31.369019%, 40.779114%, 70.588684%)" d="M 169 420.527344 L 69.335938 420.527344 L 69.335938 175.605469 L 169 175.605469 L 169 420.527344 " fill-opacity="1" fill-rule="nonzero"/></g><g clip-path="url(#id3)"><path fill="rgb(25.878906%, 37.649536%, 63.139343%)" d="M 517.261719 420.527344 L 450.667969 420.527344 L 450.667969 183.371094 L 517.261719 183.371094 L 517.261719 420.527344 " fill-opacity="1" fill-rule="nonzero"/></g><g clip-path="url(#id4)"><path fill="rgb(31.369019%, 40.779114%, 70.588684%)" d="M 470.40625 420.527344 L 450.667969 420.527344 L 450.667969 183.371094 L 470.40625 183.371094 L 470.40625 420.527344 " fill-opacity="1" fill-rule="nonzero"/></g><g clip-path="url(#id5)"><path fill="rgb(25.878906%, 37.649536%, 63.139343%)" d="M 116.070312 113.609375 L 116.070312 175.605469 L 169 175.605469 L 169 420.527344 L 235.609375 420.527344 L 235.609375 113.609375 L 116.070312 113.609375 " fill-opacity="1" fill-rule="nonzero"/></g><path fill="rgb(25.878906%, 37.649536%, 63.139343%)" d="M 512.03125 163.449219 L 455.882812 163.449219 L 455.882812 183.371094 L 512.03125 183.371094 L 512.03125 163.449219 " fill-opacity="1" fill-rule="nonzero"/><path fill="rgb(31.369019%, 40.779114%, 70.588684%)" d="M 470.40625 163.449219 L 455.882812 163.449219 L 455.882812 183.371094 L 470.40625 183.371094 L 470.40625 163.449219 " fill-opacity="1" fill-rule="nonzero"/><path fill="rgb(25.878906%, 37.649536%, 63.139343%)" d="M 503.316406 133.761719 L 464.613281 133.761719 L 464.613281 163.449219 L 503.316406 163.449219 L 503.316406 133.761719 " fill-opacity="1" fill-rule="nonzero"/><path fill="rgb(25.878906%, 37.649536%, 63.139343%)" d="M 497.542969 122.582031 L 470.386719 122.582031 L 470.386719 133.761719 L 497.542969 133.761719 L 497.542969 122.582031 " fill-opacity="1" fill-rule="nonzero"/><path fill="rgb(31.369019%, 40.779114%, 70.588684%)" d="M 470.40625 133.761719 L 464.613281 133.761719 L 464.613281 163.449219 L 470.40625 163.449219 L 470.40625 133.761719 " fill-opacity="1" fill-rule="nonzero"/><path fill="rgb(25.878906%, 37.649536%, 63.139343%)" d="M 477.386719 122.582031 L 483.964844 88.769531 L 490.542969 122.582031 Z M 477.386719 122.582031 " fill-opacity="1" fill-rule="nonzero"/><path fill="rgb(53.329468%, 77.249146%, 76.078796%)" d="M 400.921875 50.476562 L 357.546875 50.476562 L 357.546875 83.730469 L 400.921875 83.730469 L 400.921875 50.476562 " fill-opacity="1" fill-rule="nonzero"/><path fill="rgb(100%, 100%, 100%)" d="M 394.449219 37.933594 L 364.003906 37.933594 L 364.003906 50.476562 L 394.449219 50.476562 L 394.449219 37.933594 " fill-opacity="1" fill-rule="nonzero"/><path fill="rgb(31.369019%, 40.779114%, 70.588684%)" d="M 364.039062 50.476562 L 357.546875 50.476562 L 357.546875 83.730469 L 364.039062 83.730469 L 364.039062 50.476562 " fill-opacity="1" fill-rule="nonzero"/><g clip-path="url(#id6)"><path fill="rgb(53.329468%, 77.249146%, 76.078796%)" d="M 371.859375 37.933594 L 379.226562 0.0273438 L 386.609375 37.933594 Z M 371.859375 37.933594 " fill-opacity="1" fill-rule="nonzero"/></g><path fill="rgb(100%, 100%, 100%)" d="M 222.3125 162.433594 L 198.972656 179.402344 L 198.972656 136.699219 L 222.3125 136.699219 L 222.3125 162.433594 " fill-opacity="1" fill-rule="nonzero"/><path fill="rgb(100%, 100%, 100%)" d="M 222.3125 206.585938 L 198.972656 223.535156 L 198.972656 197.804688 L 222.3125 180.851562 L 222.3125 206.585938 " fill-opacity="1" fill-rule="nonzero"/><path fill="rgb(100%, 100%, 100%)" d="M 222.3125 250.71875 L 198.972656 267.6875 L 198.972656 241.957031 L 222.3125 224.988281 L 222.3125 250.71875 " fill-opacity="1" fill-rule="nonzero"/><path fill="rgb(100%, 100%, 100%)" d="M 222.3125 294.871094 L 198.972656 311.824219 L 198.972656 286.089844 L 222.3125 269.125 L 222.3125 294.871094 " fill-opacity="1" fill-rule="nonzero"/><path fill="rgb(100%, 100%, 100%)" d="M 222.3125 339.007812 L 198.972656 355.976562 L 198.972656 330.226562 L 222.3125 313.277344 L 222.3125 339.007812 " fill-opacity="1" fill-rule="nonzero"/><path fill="rgb(100%, 100%, 100%)" d="M 222.3125 400.109375 L 198.972656 400.109375 L 198.972656 374.378906 L 222.3125 357.410156 L 222.3125 400.109375 " fill-opacity="1" fill-rule="nonzero"/><g clip-path="url(#id7)"><path fill="rgb(100%, 100%, 100%)" d="M 492.886719 188.496094 L 517.261719 188.496094 L 517.261719 183.371094 L 492.886719 183.371094 L 492.886719 188.496094 " fill-opacity="1" fill-rule="nonzero"/></g><g clip-path="url(#id8)"><path fill="rgb(100%, 100%, 100%)" d="M 492.886719 201.84375 L 517.261719 201.84375 L 517.261719 196.71875 L 492.886719 196.71875 L 492.886719 201.84375 " fill-opacity="1" fill-rule="nonzero"/></g><g clip-path="url(#id9)"><path fill="rgb(100%, 100%, 100%)" d="M 492.886719 215.175781 L 517.261719 215.175781 L 517.261719 210.050781 L 492.886719 210.050781 L 492.886719 215.175781 " fill-opacity="1" fill-rule="nonzero"/></g><g clip-path="url(#id10)"><path fill="rgb(100%, 100%, 100%)" d="M 492.886719 228.523438 L 517.261719 228.523438 L 517.261719 223.394531 L 492.886719 223.394531 L 492.886719 228.523438 " fill-opacity="1" fill-rule="nonzero"/></g><g clip-path="url(#id11)"><path fill="rgb(100%, 100%, 100%)" d="M 492.886719 241.867188 L 517.261719 241.867188 L 517.261719 236.742188 L 492.886719 236.742188 L 492.886719 241.867188 " fill-opacity="1" fill-rule="nonzero"/></g><path fill="rgb(25.878906%, 37.649536%, 63.139343%)" d="M 220.140625 88.382812 L 131.535156 88.382812 L 131.535156 113.609375 L 220.140625 113.609375 L 220.140625 88.382812 " fill-opacity="1" fill-rule="nonzero"/><path fill="rgb(25.878906%, 37.649536%, 63.139343%)" d="M 205.515625 63.125 L 146.164062 63.125 L 146.164062 88.382812 L 205.515625 88.382812 L 205.515625 63.125 " fill-opacity="1" fill-rule="nonzero"/><path fill="rgb(53.329468%, 77.249146%, 76.078796%)" d="M 220.140625 88.382812 L 131.535156 88.382812 L 131.535156 98.179688 L 220.140625 98.179688 L 220.140625 88.382812 " fill-opacity="1" fill-rule="nonzero"/><path fill="rgb(53.329468%, 77.249146%, 76.078796%)" d="M 235.609375 113.609375 L 116.070312 113.609375 L 116.070312 123.421875 L 235.609375 123.421875 L 235.609375 113.609375 " fill-opacity="1" fill-rule="nonzero"/><path fill="rgb(25.878906%, 37.649536%, 63.139343%)" d="M 163.660156 26.808594 L 163.660156 63.125 L 185.359375 63.125 L 185.359375 48.519531 L 163.660156 26.808594 " fill-opacity="1" fill-rule="nonzero"/><path fill="rgb(53.329468%, 77.249146%, 76.078796%)" d="M 163.660156 26.808594 L 163.660156 63.125 L 170.714844 63.125 L 170.714844 33.875 L 163.660156 26.808594 " fill-opacity="1" fill-rule="nonzero"/><path fill="rgb(100%, 100%, 100%)" d="M 400.921875 83.730469 L 364.039062 115.394531 L 364.039062 83.730469 Z M 400.921875 83.730469 " fill-opacity="1" fill-rule="nonzero"/><path fill="rgb(100%, 100%, 100%)" d="M 364.039062 131.226562 L 364.039062 162.886719 L 400.921875 131.226562 L 400.921875 99.5625 L 364.039062 131.226562 " fill-opacity="1" fill-rule="nonzero"/><g clip-path="url(#id12)"><path fill="rgb(31.369019%, 40.779114%, 70.588684%)" d="M 327.644531 150.066406 L 258.410156 150.066406 L 258.410156 420.527344 L 327.644531 420.527344 L 327.644531 150.066406 " fill-opacity="1" fill-rule="nonzero"/></g><path fill="rgb(98.429871%, 92.939758%, 43.139648%)" d="M 314.417969 124.019531 L 271.042969 124.019531 L 271.042969 131.90625 L 314.417969 131.90625 L 314.417969 124.019531 " fill-opacity="1" fill-rule="nonzero"/><path fill="rgb(98.429871%, 92.939758%, 43.139648%)" d="M 314.417969 137.296875 L 271.042969 137.296875 L 271.042969 145.183594 L 314.417969 145.183594 L 314.417969 137.296875 " fill-opacity="1" fill-rule="nonzero"/><path fill="rgb(25.878906%, 37.649536%, 63.139343%)" d="M 307.945312 105.179688 L 277.515625 105.179688 L 277.515625 117.71875 L 307.945312 117.71875 L 307.945312 105.179688 " fill-opacity="1" fill-rule="nonzero"/><path fill="rgb(98.429871%, 92.939758%, 43.139648%)" d="M 285.355469 105.179688 L 292.722656 67.269531 L 300.105469 105.179688 Z M 285.355469 105.179688 " fill-opacity="1" fill-rule="nonzero"/><path fill="rgb(25.878906%, 37.649536%, 63.139343%)" d="M 314.417969 150.976562 L 277.535156 182.636719 L 277.535156 150.976562 Z M 314.417969 150.976562 " fill-opacity="1" fill-rule="nonzero"/><path fill="rgb(25.878906%, 37.649536%, 63.139343%)" d="M 277.535156 198.46875 L 277.535156 230.132812 L 314.417969 198.46875 L 314.417969 166.804688 L 277.535156 198.46875 " fill-opacity="1" fill-rule="nonzero"/></svg>